<svg width="240" height="107" viewBox="0 0 240 107" fill="none" xmlns="http://www.w3.org/2000/svg">
<path d="M59.8571 74.2172C59.4419 74.2089 59.0267 74.1934 58.6114 74.1934C39.4939 74.1922 20.3763 74.1923 1.25876 74.1923C0.880985 74.1923 0.503208 74.1923 0.065918 74.1923C0.065918 49.43 0.065918 24.7397 0.065918 0C80.012 0 159.924 0 239.917 0C239.917 24.6741 239.917 49.3645 239.917 74.195C220.007 74.195 200.074 74.195 179.988 74.2491C179.81 75.477 179.759 76.6511 179.769 77.8247C179.776 78.6061 179.871 79.3868 179.926 80.1678C179.926 80.1678 179.951 80.2332 179.983 80.3458C180.397 80.4798 180.778 80.5198 181.158 80.5198C200.304 80.5228 219.449 80.5225 238.594 80.5225C238.968 80.5225 239.341 80.5225 239.771 80.5225C239.771 82.1208 239.771 83.6146 239.684 85.115C220.104 85.1234 200.611 85.1241 181.118 85.1358C180.727 85.1361 180.337 85.2657 179.946 85.3349C179.946 85.3349 179.947 85.316 179.893 85.3672C179.813 86.9142 179.774 88.4098 179.77 89.9055C179.769 90.2323 179.897 90.5594 179.966 90.8863C179.966 90.8863 179.947 90.8854 179.997 90.9399C180.427 91.0209 180.806 91.0707 181.186 91.0708C195.185 91.0748 209.184 91.0725 223.183 91.075C228.713 91.076 234.242 91.0866 239.783 91.1808C239.795 92.7245 239.795 94.18 239.795 95.6789C239.275 95.6789 238.894 95.6789 238.513 95.6789C219.371 95.6789 200.228 95.6776 181.086 95.688C180.708 95.6882 180.331 95.8252 179.953 95.8984C179.953 95.8984 179.951 95.9685 179.887 96.0659C179.857 97.8014 179.892 99.4393 179.926 101.077C179.926 101.077 179.952 101.148 179.981 101.266C180.391 101.4 180.772 101.431 181.153 101.431C194.884 101.434 208.614 101.432 222.344 101.434C228.156 101.435 233.967 101.446 239.787 101.54C239.798 103.152 239.801 104.675 239.803 106.199C239.516 106.209 239.229 106.228 238.942 106.228C159.578 106.229 80.2142 106.229 0.850445 106.229C0.690653 106.229 0.530859 106.225 0.282952 106.123C0.199151 104.502 0.203466 102.983 0.296235 101.45C19.8228 101.436 39.2609 101.435 58.6991 101.432C59.0821 101.432 59.465 101.413 59.9241 101.373C60.0002 99.4761 60.0002 97.6103 60.0002 95.6789C59.515 95.6789 59.1356 95.6789 58.7562 95.6789C39.6566 95.6789 20.5571 95.6791 1.45746 95.6777C1.04275 95.6777 0.628037 95.6603 0.206478 95.5632C0.199634 94.0467 0.199634 92.6179 0.199634 91.0742C0.719721 91.0742 1.12561 91.0742 1.5315 91.0742C20.5224 91.0742 39.5133 91.0752 58.5042 91.0671C58.9047 91.0669 59.3052 90.9613 59.7058 90.9048C59.7058 90.9048 59.7611 90.8826 59.8719 90.8566C60.0034 89.0777 60.0273 87.3249 60.0351 85.572C60.0355 85.4867 59.8954 85.4008 59.8207 85.3152C59.8207 85.3152 59.7607 85.3187 59.6675 85.2551C59.194 85.17 58.8136 85.1299 58.4333 85.1298C39.4367 85.1268 20.4401 85.1272 1.4436 85.1272C1.04639 85.1272 0.649189 85.1272 0.213286 85.1272C0.213286 83.4831 0.213286 82.0167 0.30156 80.5391C20.2413 80.5279 40.0928 80.5279 60.0143 80.5279C60.0143 78.3741 60.015 76.3416 60.0078 74.3091C60.0077 74.2783 59.9095 74.2478 59.8571 74.2172ZM164.736 88.245C163.247 88.2272 161.758 88.2031 160.269 88.2016C160.118 88.2014 159.966 88.3371 159.813 88.5845C159.813 89.2082 159.813 89.8318 159.813 90.5556C160.727 90.5556 161.501 90.5556 162.292 90.5556C162.221 91.6337 161.684 92.277 160.782 92.4808C158.958 92.8928 157.136 92.6431 156.581 90.3076C156.4 89.546 156.488 88.7022 156.554 87.9044C156.662 86.6035 157.34 85.6789 158.634 85.3428C159.799 85.0402 161.153 85.6481 161.862 86.6873C161.956 86.8254 162.106 87.0188 162.236 87.0235C163.076 87.054 163.918 87.0391 164.785 87.0391C163.982 83.328 160.755 82.5345 157.98 83.1205C154.113 83.9367 153.067 87.5385 153.923 91.1108C154.253 92.4883 155.14 93.6869 156.449 94.3328C158.443 95.3168 160.451 95.1849 162.352 93.8993C162.466 94.2352 162.549 94.4797 162.618 94.6837C163.4 94.6837 164.101 94.6837 164.936 94.6005C164.948 92.658 164.963 90.7155 164.963 88.773C164.963 88.6423 164.846 88.5117 164.801 88.3832C164.801 88.3832 164.801 88.401 164.736 88.245ZM124.697 83.2073C124.697 83.2073 124.713 83.2059 124.587 83.3091C124.563 83.4007 124.518 83.4923 124.518 83.5839C124.513 87.0931 124.508 90.6024 124.518 94.1115C124.519 94.3097 124.645 94.5075 124.889 94.7165C125.658 94.7073 126.427 94.6981 127.351 94.6318C127.351 93.2083 127.351 91.7847 127.351 90.3559C128.612 90.2854 129.745 90.2222 131.032 90.1183C134.082 89.3077 134.333 85.9352 133.04 84.4651C132.505 83.8558 131.572 83.5953 130.701 83.0751C128.83 83.0542 126.959 83.0291 125.088 83.0218C124.958 83.0213 124.827 83.153 124.697 83.2073ZM138.147 83.2146C137.38 83.2155 136.614 83.2163 135.716 83.3115C135.692 83.4028 135.645 83.494 135.645 83.5854C135.639 87.0941 135.635 90.6029 135.645 94.1116C135.645 94.3098 135.772 94.5076 136.015 94.7165C136.785 94.7073 137.554 94.6981 138.478 94.6318C138.489 90.9571 138.502 87.2824 138.503 83.6077C138.503 83.4848 138.386 83.3619 138.147 83.2146ZM93.9464 89.8706C95.2135 87.6731 96.4806 85.4756 97.7876 83.2088C97.3126 83.2088 96.9498 83.2675 96.6132 83.1986C95.1724 82.9035 94.435 83.5889 93.9256 84.8677C93.5435 85.827 92.9337 86.6955 92.3549 87.7303C91.6297 86.3566 91.0017 85.1329 90.3355 83.9304C90.1826 83.6543 89.9166 83.2719 89.6712 83.2468C88.8357 83.1616 87.9862 83.2142 87.1298 83.2142C87.1298 83.439 87.094 83.5536 87.1351 83.6222C88.0505 85.1496 88.9623 86.6794 89.9006 88.1929C90.5915 89.3074 91.1169 90.4338 90.9585 91.8176C90.8515 92.7513 90.9381 93.707 90.9381 94.685C91.9159 94.685 92.7718 94.685 93.7779 94.6212C93.7981 93.065 93.8184 91.5089 93.9464 89.8706ZM4.91653 69.3331C5.29703 69.3542 5.67752 69.3937 6.05802 69.3937C35.024 69.3966 63.99 69.3964 92.956 69.3964C139.922 69.3964 186.888 69.3968 233.854 69.3879C234.234 69.3878 234.615 69.2597 235.01 69.1014C235.01 69.1014 235.037 69.0145 235.139 68.8916C235.159 68.6388 235.198 68.3861 235.198 68.1334C235.2 47.4362 235.201 26.739 235.193 6.04177C235.193 5.73737 235.091 5.43301 235.01 5.0396C235.01 5.0396 234.991 4.94824 234.923 4.79877C234.605 4.78179 234.287 4.74996 233.97 4.74995C157.951 4.74779 81.9333 4.74784 5.91514 4.74784C5.57535 4.74784 5.23556 4.74785 4.79801 4.74785C4.79801 5.25179 4.798 5.62739 4.798 6.00299C4.798 26.7178 4.79777 47.4325 4.80001 68.1473C4.80005 68.4975 4.83014 68.8476 4.91653 69.3331ZM99.6506 83.3115C99.6258 83.4028 99.5795 83.494 99.5794 83.5854C99.5737 87.0941 99.569 90.6029 99.579 94.1116C99.5796 94.3098 99.706 94.5076 99.9498 94.7165C100.719 94.7073 101.488 94.6981 102.412 94.6318C102.423 93.9735 102.422 93.3147 102.45 92.6571C102.491 91.6717 102.554 90.6871 102.66 89.8295C103.678 91.2552 104.681 92.6912 105.726 94.0974C105.924 94.365 106.267 94.6597 106.569 94.6904C107.379 94.7727 108.202 94.7185 109.167 94.7185C107.867 92.8597 106.676 91.1027 105.421 89.3931C105.035 88.8674 105.116 88.574 105.492 88.0899C106.716 86.5164 107.866 84.8861 109.095 83.2088C108.347 83.2088 107.68 83.239 107.018 83.2C106.391 83.1632 105.999 83.3423 105.623 83.9153C104.695 85.3284 103.646 86.6618 102.509 87.9294C102.488 86.8319 102.483 85.7338 102.439 84.6372C102.42 84.1695 102.32 83.705 102.081 83.2147C101.314 83.2155 100.548 83.2163 99.6506 83.3115ZM148.17 89.7099C147.251 88.2572 146.26 86.844 145.433 85.3406C144.619 83.8585 143.697 82.7484 141.793 83.2055C141.671 83.2347 141.538 83.2144 141.28 83.3115C141.255 83.4028 141.209 83.494 141.208 83.5854C141.203 87.0941 141.198 90.6029 141.208 94.1116C141.209 94.3098 141.335 94.5076 141.579 94.7165C142.348 94.7073 143.117 94.6981 144.041 94.6318C144.052 92.8204 144.054 91.0088 144.083 89.1976C144.09 88.7393 144.184 88.2823 144.305 87.9418C145.336 89.6031 146.362 91.2677 147.399 92.9247C148.539 94.7445 148.544 94.7417 150.788 94.7179C150.915 94.7166 151.042 94.7057 151.312 94.6228C151.33 90.9348 151.35 87.2468 151.356 83.5588C151.356 83.4398 151.207 83.3206 150.956 83.2088C150.197 83.2184 149.438 83.228 148.534 83.3086C148.52 85.1699 148.514 87.0314 148.483 88.8924C148.478 89.1808 148.363 89.4674 148.17 89.7099ZM82.3498 83.3086C82.3355 85.1699 82.3291 87.0314 82.2986 88.8924C82.2939 89.1808 82.179 89.4674 81.9854 89.7099C81.0665 88.2572 80.0757 86.844 79.249 85.3406C78.4341 83.8585 77.5123 82.7484 75.6082 83.2055C75.4868 83.2347 75.3536 83.2144 75.0952 83.3115C75.0704 83.4028 75.0241 83.494 75.024 83.5854C75.0183 87.0941 75.0136 90.6029 75.0236 94.1116C75.0242 94.3098 75.1506 94.5076 75.3944 94.7165C76.1635 94.7073 76.9326 94.6981 77.8564 94.6318C77.868 92.8204 77.8695 91.0088 77.8981 89.1976C77.9054 88.7393 77.9994 88.2823 78.121 87.9418C79.1519 89.6031 80.1774 91.2677 81.215 92.9247C82.3547 94.7445 82.3596 94.7417 84.604 94.7179C84.7308 94.7166 84.8574 94.7057 85.1273 94.6228C85.1454 90.9348 85.1657 87.2468 85.1715 83.5588C85.1717 83.4398 85.0228 83.3206 84.7716 83.2088C84.0128 83.2184 83.254 83.228 82.3498 83.3086ZM115.829 83.0169C113.105 83.1569 111.287 85.2612 110.826 87.5815C110.148 91.0007 112.089 95.5051 116.985 94.9173C118.344 94.7541 119.635 94.3179 120.518 93.3574C122.159 91.573 122.45 89.3284 121.884 87.0361C121.311 84.7156 119.071 82.7369 115.829 83.0169ZM118.933 80.4229C118.175 79.8873 117.431 79.9105 116.963 80.5051C116.496 81.0972 116.501 81.8272 117.109 82.1471C117.584 82.397 118.396 82.3718 118.891 82.1286C119.549 81.8055 119.718 81.128 118.933 80.4229ZM116.007 80.7677C115.828 80.5869 115.675 80.3641 115.466 80.2327C114.623 79.705 113.464 80.2244 113.384 81.1471C113.317 81.9023 113.768 82.4084 114.534 82.439C115.513 82.4781 116.054 81.9343 116.007 80.7677Z" fill="white"/>
<path d="M59.8572 74.3051C59.9096 74.2479 60.0078 74.2784 60.0079 74.3092C60.0151 76.3417 60.0144 78.3742 60.0144 80.528C40.0929 80.528 20.2414 80.528 0.25785 80.5294C0.12575 80.5308 0.0361328 80.5249 0.0361328 80.5249C0.377752 80.4605 0.719348 80.3397 1.061 80.3396C20.2377 80.3305 39.4143 80.3315 58.591 80.3315C58.9717 80.3315 59.3525 80.3315 59.8572 80.3315C59.8572 78.3281 59.8572 76.3605 59.8572 74.3051Z" fill="#D9D9D9"/>
<path d="M0.213463 95.6509C0.628178 95.6602 1.04289 95.6776 1.45761 95.6776C20.5572 95.679 39.6568 95.6788 58.7564 95.6788C59.1357 95.6788 59.5151 95.6788 60.0003 95.6788C60.0003 97.6102 60.0003 99.476 59.9225 101.328C59.8447 101.314 59.8511 101.226 59.8511 101.226C59.8511 99.4736 59.8511 97.7216 59.8511 95.8698C59.4229 95.8698 59.0504 95.8698 58.6778 95.8698C39.4961 95.8698 20.3143 95.87 1.13256 95.8685C0.781805 95.8685 0.431044 95.8483 0.103027 95.754C0.125769 95.6705 0.213463 95.6509 0.213463 95.6509Z" fill="#D9D9D9"/>
<path d="M180.042 95.8859C180.331 95.8254 180.708 95.6884 181.086 95.6882C200.229 95.6778 219.371 95.679 238.514 95.679C238.895 95.679 239.275 95.679 239.795 95.679C239.795 94.1802 239.795 92.7246 239.792 91.136C239.789 91.003 239.794 90.9116 239.794 90.9116C239.862 91.0893 239.988 91.2664 239.99 91.4448C240.006 92.8799 239.999 94.3152 239.999 95.8731C220.027 95.8731 200.079 95.8731 180.042 95.8859Z" fill="#D9D9D9"/>
<path d="M239.771 85.1085C239.771 83.6147 239.771 82.1208 239.771 80.5225C239.341 80.5225 238.968 80.5225 238.594 80.5225C219.449 80.5225 200.303 80.5229 181.158 80.5198C180.778 80.5198 180.397 80.4799 179.984 80.3807C180.335 80.3123 180.718 80.3302 181.101 80.3303C200.365 80.3316 219.629 80.3314 238.894 80.3314C239.238 80.3314 239.582 80.3315 239.959 80.3315C239.959 82.0172 239.959 83.6359 239.873 85.2266C239.788 85.1985 239.771 85.1085 239.771 85.1085Z" fill="#D9D9D9"/>
<path d="M0.0240565 80.6135C0.035906 80.5248 0.125526 80.5307 0.169352 80.5405C0.213179 82.0167 0.213179 83.483 0.213179 85.1271C0.649081 85.1271 1.04629 85.1271 1.44349 85.1271C20.44 85.1271 39.4366 85.1267 58.4331 85.1298C58.8135 85.1299 59.1939 85.17 59.6395 85.2439C59.3218 85.304 58.9388 85.318 58.5558 85.318C39.455 85.3191 20.3542 85.319 1.25345 85.319C0.875148 85.319 0.496842 85.319 0.012207 85.319C0.012207 83.7443 0.0122071 82.2233 0.0240565 80.6135Z" fill="#A6A6A6"/>
<path d="M0.206582 95.5634C0.213426 95.6512 0.125732 95.6708 0.0809311 95.6737C0.0361327 94.117 0.0361328 92.5574 0.0361328 90.8867C19.8791 90.8867 39.6983 90.8867 59.6117 90.8959C59.3053 90.9615 58.9048 91.0671 58.5043 91.0673C39.5134 91.0754 20.5225 91.0744 1.53161 91.0744C1.12572 91.0744 0.719826 91.0744 0.199739 91.0744C0.199739 92.6181 0.199739 94.0469 0.206582 95.5634Z" fill="#A6A6A6"/>
<path d="M239.778 101.452C233.967 101.446 228.155 101.435 222.344 101.434C208.614 101.432 194.883 101.434 181.153 101.431C180.772 101.431 180.39 101.4 179.984 101.303C182.418 101.228 184.877 101.24 187.335 101.241C204.515 101.242 221.694 101.241 238.874 101.243C239.224 101.243 239.575 101.262 239.899 101.355C239.872 101.438 239.778 101.452 239.778 101.452Z" fill="#141113"/>
<path d="M239.706 90.8989C239.794 90.9112 239.789 91.0027 239.78 91.0476C234.242 91.0864 228.713 91.0758 223.184 91.0748C209.184 91.0722 195.185 91.0746 181.186 91.0706C180.806 91.0705 180.427 91.0207 179.997 90.9302C187.864 90.8715 195.782 90.8792 203.7 90.8816C215.672 90.8852 227.645 90.8851 239.706 90.8989Z" fill="#A6A6A6"/>
<path d="M239.684 85.1151C239.771 85.1086 239.788 85.1986 239.791 85.2443C239.411 85.2997 239.028 85.3178 238.646 85.3179C219.14 85.3202 199.633 85.3209 180.037 85.3284C180.337 85.2658 180.727 85.1362 181.118 85.1359C200.611 85.1242 220.104 85.1235 239.684 85.1151Z" fill="#A6A6A6"/>
<path d="M59.7619 101.233C59.8509 101.225 59.8445 101.314 59.8463 101.359C59.465 101.413 59.082 101.432 58.699 101.432C39.2609 101.435 19.8228 101.436 0.25446 101.436C0.124268 101.435 0.0366211 101.43 0.0366211 101.43C0.378993 101.367 0.721338 101.249 1.06374 101.249C20.6002 101.24 40.1366 101.241 59.7619 101.233Z" fill="#141113"/>
<path d="M179.936 80.0752C179.871 79.3869 179.776 78.6062 179.769 77.8247C179.759 76.6512 179.81 75.4771 179.898 74.2549C179.956 76.1319 179.951 78.0572 179.936 80.0752Z" fill="white"/>
<path d="M179.959 90.7961C179.897 90.5594 179.769 90.2324 179.77 89.9056C179.774 88.4098 179.813 86.9142 179.903 85.3667C179.961 87.1119 179.957 88.9089 179.959 90.7961Z" fill="white"/>
<path d="M59.8369 85.4044C59.8952 85.401 60.0353 85.4869 60.0349 85.5722C60.0271 87.3251 60.0032 89.0779 59.9014 90.8587C59.8313 89.0888 59.8423 87.2911 59.8369 85.4044Z" fill="#554319"/>
<path d="M179.936 100.985C179.892 99.4396 179.857 97.8016 179.875 96.0991C179.933 97.6539 179.939 99.2732 179.936 100.985Z" fill="white"/>
<path d="M0.0239386 101.519C0.0366427 101.43 0.124293 101.436 0.166029 101.449C0.203451 102.983 0.199136 104.502 0.193516 106.11C0.130226 105.529 0.0373893 104.862 0.0139801 104.192C-0.0160971 103.332 0.00957752 102.47 0.0239386 101.519Z" fill="white"/>
<path d="M239.787 101.54C239.778 101.452 239.872 101.438 239.92 101.437C239.966 103.007 239.965 104.579 239.883 106.175C239.801 104.676 239.799 103.152 239.787 101.54Z" fill="#554319"/>
<path d="M234.957 4.87372C234.608 4.94501 234.224 4.93859 233.84 4.93859C158.007 4.93815 82.173 4.93818 6.33928 4.93818C5.9284 4.93818 5.51751 4.93816 4.9966 4.93816C4.9966 26.3327 4.9966 47.6759 4.96154 69.108C4.92648 69.197 4.84606 69.198 4.84606 69.198C4.82999 68.8478 4.7999 68.4977 4.79986 68.1475C4.79762 47.4328 4.79786 26.718 4.79786 6.0032C4.79786 5.6276 4.79786 5.252 4.79786 4.74806C5.23541 4.74806 5.5752 4.74805 5.91499 4.74805C81.9331 4.74805 157.951 4.748 233.969 4.75015C234.287 4.75017 234.605 4.782 234.957 4.87372Z" fill="#554319"/>
<path d="M4.88124 69.2656C4.84607 69.1979 4.9265 69.1969 4.96668 69.1973C5.16668 69.2 5.3265 69.2044 5.48633 69.2044C81.9313 69.2041 158.376 69.2037 234.909 69.1974C234.615 69.2599 234.234 69.3879 233.853 69.388C186.888 69.397 139.922 69.3965 92.9559 69.3965C63.9899 69.3965 35.0239 69.3967 6.05789 69.3939C5.67739 69.3938 5.2969 69.3543 4.88124 69.2656Z" fill="#A6A6A6"/>
<path d="M235.088 68.9528C235.028 68.8232 235.01 68.6321 235.01 68.441C235.01 47.3967 235.012 26.3524 235.025 5.21826C235.091 5.43284 235.193 5.7372 235.194 6.0416C235.201 26.7388 235.201 47.436 235.198 68.1332C235.198 68.3859 235.159 68.6387 235.088 68.9528Z" fill="#8C8C8C"/>
<path d="M75.1604 83.2642C75.22 86.9875 75.2142 90.758 75.2133 94.617C75.1504 94.5074 75.024 94.3096 75.0234 94.1115C75.0134 90.6028 75.0181 87.094 75.0238 83.5852C75.0239 83.4939 75.0702 83.4026 75.1604 83.2642Z" fill="white"/>
<path d="M151.24 94.661C151.168 90.9261 151.167 87.1528 151.147 83.2905C151.207 83.3206 151.356 83.4398 151.356 83.5588C151.35 87.2468 151.33 90.9348 151.24 94.661Z" fill="#D9D9D9"/>
<path d="M85.0557 94.661C84.9832 90.9261 84.9823 87.1528 84.9624 83.2905C85.0228 83.3206 85.1717 83.4398 85.1715 83.5588C85.1657 87.2468 85.1454 90.9348 85.0557 94.661Z" fill="#D9D9D9"/>
<path d="M141.345 83.2642C141.405 86.9875 141.399 90.758 141.398 94.617C141.335 94.5074 141.209 94.3096 141.208 94.1115C141.198 90.6028 141.203 87.094 141.208 83.5852C141.208 83.4939 141.255 83.4026 141.345 83.2642Z" fill="white"/>
<path d="M99.716 83.2642C99.7756 86.9875 99.7699 90.758 99.769 94.617C99.7061 94.5074 99.5797 94.3096 99.5791 94.1115C99.5691 90.6028 99.5738 87.094 99.5795 83.5852C99.5796 83.4939 99.6259 83.4026 99.716 83.2642Z" fill="white"/>
<path d="M138.4 94.6601C138.322 90.9303 138.322 87.1719 138.322 83.3262C138.385 83.3617 138.503 83.4846 138.503 83.6074C138.502 87.2822 138.489 90.9569 138.4 94.6601Z" fill="#141113"/>
<path d="M124.65 83.2573C124.71 86.98 124.706 90.7543 124.708 94.6169C124.645 94.5073 124.519 94.3095 124.518 94.1114C124.508 90.6022 124.513 87.093 124.518 83.5837C124.518 83.4921 124.563 83.4005 124.65 83.2573Z" fill="white"/>
<path d="M135.781 83.2642C135.841 86.9875 135.835 90.758 135.834 94.617C135.771 94.5074 135.645 94.3096 135.645 94.1115C135.634 90.6028 135.639 87.094 135.645 83.5852C135.645 83.4939 135.691 83.4026 135.781 83.2642Z" fill="white"/>
<path d="M127.274 94.6601C127.196 93.2005 127.196 91.7124 127.196 90.1528C128.4 90.1528 129.563 90.1528 130.802 90.1557C129.745 90.2219 128.613 90.2852 127.351 90.3557C127.351 91.7845 127.351 93.208 127.274 94.6601Z" fill="#141113"/>
<path d="M148.607 83.2729C148.68 85.5662 148.68 87.895 148.68 90.445C148.482 90.1513 148.397 90.0256 148.306 89.8274C148.363 89.4673 148.478 89.1807 148.483 88.8923C148.513 87.0313 148.52 85.1698 148.607 83.2729Z" fill="#D9D9D9"/>
<path d="M82.4223 83.2729C82.4951 85.5662 82.4951 87.895 82.4951 90.445C82.2974 90.1513 82.2129 90.0256 82.1216 89.8274C82.1788 89.4673 82.2937 89.1807 82.2985 88.8923C82.3289 87.0313 82.3353 85.1698 82.4223 83.2729Z" fill="#D9D9D9"/>
<path d="M77.7792 94.6604C77.7016 92.5715 77.692 90.4539 77.7151 88.3367C77.7176 88.1132 77.9126 87.8918 78.036 87.7471C77.9996 88.2823 77.9055 88.7393 77.8983 89.1976C77.8696 91.0088 77.8681 92.8204 77.7792 94.6604Z" fill="#141113"/>
<path d="M143.963 94.6604C143.886 92.5715 143.876 90.4539 143.899 88.3367C143.902 88.1132 144.097 87.8918 144.22 87.7471C144.184 88.2823 144.09 88.7393 144.082 89.1976C144.054 91.0088 144.052 92.8204 143.963 94.6604Z" fill="#141113"/>
<path d="M164.869 94.642C164.802 92.6429 164.801 90.6021 164.792 88.4712C164.846 88.5116 164.963 88.6423 164.963 88.7729C164.963 90.7154 164.948 92.6579 164.869 94.642Z" fill="#D9D9D9"/>
<path d="M130.761 83.1258C128.839 83.1893 126.858 83.2022 124.787 83.2192C124.827 83.1532 124.958 83.0215 125.088 83.022C126.959 83.0293 128.83 83.0544 130.761 83.1258Z" fill="#737373"/>
<path d="M102.335 94.6606C102.257 93.1961 102.246 91.7029 102.269 90.2102C102.272 89.9962 102.44 89.7847 102.569 89.6372C102.554 90.6873 102.491 91.6719 102.45 92.6573C102.422 93.3149 102.424 93.9737 102.335 94.6606Z" fill="#141113"/>
<path d="M102.577 87.9781C102.125 88.4143 102.264 87.9297 102.262 87.7165C102.251 86.2823 102.256 84.8479 102.257 83.3262C102.32 83.7048 102.42 84.1693 102.439 84.637C102.483 85.7336 102.488 86.8317 102.577 87.9781Z" fill="#141113"/>
<path d="M164.768 88.3231C163.198 88.3986 161.595 88.3961 159.903 88.4018C159.966 88.3372 160.118 88.2015 160.269 88.2017C161.758 88.2032 163.247 88.2274 164.768 88.3231Z" fill="#D9D9D9"/>
<path d="M93.7028 94.6532C93.6412 93.116 93.6546 91.5469 93.7533 89.9653C93.8183 91.509 93.7981 93.0652 93.7028 94.6532Z" fill="#141113"/>
<path d="M62.5184 19.17C66.5001 30.7701 70.4818 42.3703 74.5104 54.107C76.3972 51.1157 78.1861 48.2299 80.0274 45.378C81.2431 43.4951 82.537 41.6629 83.7882 39.8028C83.9618 39.5447 84.0319 39.1902 84.2516 38.9943C85.6567 37.7412 85.1018 36.6342 84.2089 35.34C82.1659 32.3785 80.2532 29.3271 78.2907 26.3101C76.7733 23.9775 75.2606 21.6418 73.7599 19.1829C74.0509 19.0193 74.3277 18.9468 74.6046 18.9463C77.7146 18.9407 80.8246 18.9462 83.9346 18.9487C85.3638 21.33 86.7929 23.7113 88.2222 26.0926C89.0885 27.5358 89.9523 28.9805 90.8242 30.4204C90.9843 30.6847 91.1777 30.929 91.4235 31.279C92.596 29.3642 93.7164 27.5368 94.8344 25.7079C96.0555 23.7103 97.2765 21.7127 98.4909 19.711C98.6191 19.4998 98.7027 19.2615 98.9494 18.9932C102.156 18.9474 105.221 18.938 108.286 18.9514C108.577 18.9526 108.867 19.0964 109.158 19.174C107.25 22.1295 105.347 25.0875 103.434 28.0398C101.54 30.965 99.6259 33.8778 97.7576 36.8196C97.6156 37.0434 97.6521 37.5311 97.8044 37.7685C100.049 41.2685 102.328 44.7468 104.598 48.2303C106.032 50.4305 107.467 52.6294 108.894 54.834C108.99 54.9824 109.02 55.1742 109.096 55.3917C105.836 55.3917 102.641 55.3687 99.4469 55.411C98.8076 55.4195 98.6596 54.9946 98.4203 54.625C96.6839 51.9431 94.9657 49.2493 93.2319 46.5656C92.6712 45.6977 92.0813 44.8488 91.4413 43.8968C89.8474 46.344 88.2874 48.7391 86.7273 51.1342C85.9048 52.397 85.0996 53.6717 84.2441 54.9118C84.0845 55.1432 83.7235 55.3707 83.4544 55.3719C77.7969 55.3982 72.1393 55.3874 66.4817 55.3989C65.9686 55.3999 65.7004 55.2834 65.5453 54.7204C65.0402 52.8873 64.452 51.0772 63.8878 49.1142C63.7977 48.935 63.7157 48.8998 63.6337 48.8646C63.6337 48.8646 63.5739 48.867 63.4829 48.8046C59.5918 48.7221 55.7918 48.7011 51.9918 48.6903C51.934 48.6902 51.8758 48.8174 51.8179 48.8851C51.1361 51.029 50.4543 53.1729 49.7597 55.3572C46.7315 55.3572 43.6721 55.3572 40.5503 55.3572C42.4144 49.9246 44.2733 44.5209 46.1225 39.1138C47.5684 34.8857 48.9991 30.6525 50.4426 26.4236C51.2693 24.0019 52.1082 21.5843 53.0444 19.0765C56.0694 18.9728 58.9917 18.9529 61.9139 18.9521C62.1154 18.952 62.3169 19.094 62.5184 19.17ZM57.6649 28.9626C56.4599 33.0665 55.255 37.1704 54.0278 41.35C56.6152 41.35 59.0392 41.35 61.4944 41.35C61.3284 40.7674 61.1722 40.1966 61.0031 39.6295C59.9429 36.0731 58.8799 32.5176 57.6649 28.9626Z" fill="white"/>
<path d="M170.714 18.9713C171.935 20.8618 173.17 22.7433 174.374 24.6445C177.585 29.7154 180.783 34.795 183.988 39.8695C184.071 40.0008 184.184 40.1132 184.307 40.3546C184.431 40.6021 184.531 40.7296 184.777 41.0435C184.777 33.5428 184.777 26.2785 184.777 18.9497C187.628 18.9497 190.396 18.9497 193.172 19.0388C193.182 31.2058 193.184 43.2837 193.186 55.3615C190.445 55.3717 187.703 55.3979 184.961 55.3686C184.669 55.3655 184.272 55.1082 184.108 54.851C181.741 51.1381 179.414 47.4003 177.062 43.6782C175.111 40.5898 173.137 37.5152 171.179 34.4308C171.03 34.1957 170.928 33.9309 170.78 33.549C170.365 33.3591 170.36 33.3591 170.36 34.0717C170.36 41.168 170.362 48.2644 170.363 55.3608C167.607 55.3692 164.851 55.3776 162.006 55.286C161.918 49.244 161.914 43.3022 161.919 37.3603C161.923 31.2272 161.934 25.094 162.03 18.9539C164.984 18.955 167.849 18.9631 170.714 18.9713Z" fill="white"/>
<path d="M206.045 55.3607C203.289 55.3691 200.533 55.3776 197.688 55.286C197.599 49.1801 197.596 43.1743 197.6 37.1685C197.604 31.0993 197.616 25.0301 197.712 18.9536C200.538 18.9531 203.276 18.9598 206.024 19.0544C206.033 24.2837 206.033 29.425 206.033 34.5663C206.124 34.5729 206.216 34.5796 206.307 34.5862C206.347 34.4583 206.388 34.3303 206.429 34.2023C208.547 31.2025 210.648 28.1905 212.789 25.2071C214.265 23.1511 215.796 21.1347 217.431 19.0372C220.672 18.9633 223.785 18.9434 226.897 18.9627C227.106 18.964 227.312 19.2618 227.52 19.4217C225.786 21.7349 224.062 24.0554 222.316 26.3595C219.864 29.5944 217.386 32.8093 214.959 36.0617C214.786 36.2936 214.782 36.8673 214.95 37.1056C217.379 40.5528 219.85 43.9703 222.312 47.3937C224.184 49.9959 226.058 52.5964 228.026 55.3286C227.568 55.3561 227.269 55.3892 226.97 55.3897C224.126 55.3936 221.282 55.3478 218.44 55.4206C217.648 55.4409 217.22 55.1112 216.833 54.5574C213.604 49.933 210.376 45.3068 207.152 40.679C206.921 40.3477 206.715 39.9991 206.476 39.5325C205.747 39.1694 206.057 39.7599 206.056 39.9651C206.039 45.0969 206.044 50.2288 206.045 55.3607Z" fill="white"/>
<path d="M12.315 26.4403C12.3065 23.9995 12.298 21.5586 12.3897 19.0295C22.1329 18.9481 31.7758 18.9549 41.4296 19.0499C41.4349 21.5596 41.4293 23.9812 41.3354 26.4124C38.242 26.4236 35.2367 26.4193 32.2316 26.4359C31.9106 26.4377 31.5903 26.5612 31.2697 26.6283C31.2697 26.6283 31.2709 26.6118 31.2048 26.6494C31.1198 26.9716 31.0846 27.2562 31.0846 27.5408C31.0826 36.8145 31.084 46.0882 31.0849 55.3619C28.3304 55.3701 25.5759 55.3782 22.7329 55.2863C22.6448 46.0083 22.6472 36.8304 22.6365 27.6525C22.6361 27.3051 22.5075 26.9578 22.4386 26.6104C22.4386 26.6104 22.4564 26.6108 22.4153 26.5484C19.0211 26.4707 15.668 26.4555 12.315 26.4403Z" fill="white"/>
<path d="M147.15 55.3613C139.407 55.3696 131.663 55.3778 123.83 55.286C123.742 49.3079 123.739 43.43 123.743 37.552C123.747 31.3551 123.758 25.1581 123.854 18.9541C126.68 18.9537 129.418 18.9603 132.165 19.0548C132.177 28.3071 132.178 37.4716 132.191 46.636C132.192 46.9926 132.32 47.349 132.388 47.7055C137.247 47.7113 142.107 47.7171 147.056 47.8235C147.147 50.4032 147.149 52.8822 147.15 55.3613Z" fill="white"/>
<path d="M119.141 55.3608C116.385 55.3692 113.629 55.3777 110.785 55.286C110.696 49.3079 110.693 43.43 110.697 37.552C110.702 31.3551 110.713 25.1581 110.809 18.9541C113.635 18.9537 116.373 18.9603 119.12 19.0548C119.133 31.2154 119.137 43.2881 119.141 55.3608Z" fill="white"/>
<path d="M157.509 55.3608C154.753 55.3692 151.998 55.3777 149.153 55.286C149.065 49.3079 149.061 43.43 149.066 37.552C149.07 31.3551 149.081 25.1581 149.177 18.9541C152.003 18.9537 154.741 18.9603 157.488 19.0548C157.501 31.2154 157.505 43.2881 157.509 55.3608Z" fill="white"/>
<path d="M149.089 18.9615C149.081 25.1584 149.07 31.3554 149.065 37.5524C149.061 43.4303 149.064 49.3083 149.064 55.2739C149 55.1478 148.881 54.9342 148.881 54.7204C148.872 42.852 148.873 30.9835 148.874 19.1151C148.874 19.02 148.891 18.9249 148.982 18.8516C149.064 18.8733 149.089 18.9615 149.089 18.9615Z" fill="#060612"/>
<path d="M110.721 18.9615C110.713 25.1584 110.702 31.3554 110.698 37.5524C110.694 43.4303 110.697 49.3083 110.696 55.2739C110.632 55.1478 110.513 54.9342 110.513 54.7204C110.504 42.852 110.505 30.9835 110.507 19.1151C110.507 19.02 110.523 18.9249 110.614 18.8516C110.696 18.8733 110.721 18.9615 110.721 18.9615Z" fill="#060612"/>
<path d="M197.624 18.9607C197.616 25.0299 197.604 31.0992 197.6 37.1684C197.596 43.1742 197.599 49.18 197.598 55.2735C197.535 55.1472 197.416 54.9334 197.416 54.7195C197.407 42.8512 197.408 30.9829 197.41 19.1147C197.41 19.0196 197.426 18.9245 197.517 18.8511C197.599 18.8727 197.624 18.9607 197.624 18.9607Z" fill="#060612"/>
<path d="M123.766 18.961C123.758 25.1579 123.747 31.3549 123.743 37.5519C123.739 43.4298 123.742 49.3078 123.741 55.2734C123.677 55.1473 123.558 54.9337 123.558 54.7199C123.549 42.8515 123.55 30.983 123.552 19.1146C123.552 19.0195 123.568 18.9244 123.659 18.8511C123.741 18.8728 123.766 18.961 123.766 18.961Z" fill="#060612"/>
<path d="M161.942 18.9608C161.934 25.0939 161.923 31.227 161.918 37.3601C161.914 43.302 161.917 49.2439 161.917 55.2735C161.853 55.1473 161.734 54.9336 161.734 54.7198C161.725 42.8514 161.726 30.983 161.727 19.1146C161.727 19.0196 161.744 18.9245 161.835 18.8511C161.917 18.8728 161.942 18.9608 161.942 18.9608Z" fill="#060612"/>
<path d="M157.585 55.3297C157.505 43.2882 157.501 31.2155 157.536 19.0496C157.607 18.9552 157.639 18.9539 157.671 18.9526C157.68 26.689 157.694 34.4254 157.695 42.1618C157.695 46.5407 157.673 50.9196 157.585 55.3297Z" fill="#737373"/>
<path d="M119.217 55.3297C119.137 43.2882 119.134 31.2155 119.168 19.0496C119.239 18.9552 119.272 18.9539 119.304 18.9526C119.312 26.689 119.327 34.4254 119.327 42.1618C119.328 46.5407 119.305 50.9196 119.217 55.3297Z" fill="#737373"/>
<path d="M193.266 55.3375C193.184 43.2836 193.182 31.2058 193.221 19.0344C193.294 18.9393 193.326 18.9377 193.359 18.936C193.366 29.18 193.375 39.4239 193.379 49.6679C193.38 51.5498 193.358 53.4317 193.266 55.3375Z" fill="#554319"/>
<path d="M193.334 18.8562C193.326 18.9377 193.294 18.9394 193.213 18.9454C190.396 18.9497 187.628 18.9497 184.777 18.9497C184.777 26.2785 184.777 33.5428 184.777 41.0435C184.531 40.7296 184.431 40.6021 184.342 40.4042C184.421 40.0405 184.546 39.7473 184.546 39.4538C184.557 32.5998 184.555 25.7458 184.555 18.7764C187.479 18.7764 190.394 18.7764 193.334 18.8562Z" fill="#A6A6A6"/>
<path d="M41.4183 18.9617C31.7754 18.9548 22.1325 18.948 12.4019 18.94C12.5976 18.8764 12.881 18.7594 13.1646 18.7592C22.5322 18.751 31.8998 18.754 41.354 18.814C41.4406 18.8726 41.4183 18.9617 41.4183 18.9617Z" fill="#D9D9D9"/>
<path d="M31.1637 55.3355C31.0839 46.0882 31.0825 36.8145 31.0844 27.5408C31.0845 27.2562 31.1197 26.9716 31.2129 26.6489C31.2836 35.8271 31.2804 45.0433 31.275 54.2595C31.2748 54.6094 31.2538 54.9593 31.1637 55.3355Z" fill="#A6A6A6"/>
<path d="M22.4434 26.7002C22.5072 26.9573 22.6358 27.3046 22.6362 27.6521C22.647 36.83 22.6445 46.0079 22.6436 55.2734C22.5784 55.0506 22.4581 54.7401 22.4577 54.4295C22.4473 45.2165 22.4488 36.0035 22.4434 26.7002Z" fill="#D9D9D9"/>
<path d="M132.382 47.6169C132.319 47.349 132.192 46.9926 132.191 46.636C132.178 37.4716 132.177 28.3072 132.213 19.0496C132.284 18.9552 132.316 18.9539 132.349 18.9526C132.357 27.0075 132.366 35.0623 132.374 43.1172C132.376 44.5876 132.376 46.058 132.382 47.6169Z" fill="#737373"/>
<path d="M170.438 55.3296C170.361 48.2644 170.359 41.1681 170.359 34.0717C170.359 33.3591 170.364 33.3591 170.751 33.4903C170.68 33.8758 170.559 34.1889 170.559 34.5022C170.548 41.0838 170.551 47.6654 170.549 54.247C170.549 54.5974 170.526 54.9479 170.438 55.3296Z" fill="#737373"/>
<path d="M206.121 55.3295C206.044 50.2291 206.039 45.0971 206.056 39.9653C206.057 39.7601 205.747 39.1697 206.441 39.4819C206.361 39.8619 206.242 40.1663 206.241 40.4713C206.217 45.4135 206.209 50.3558 206.121 55.3295Z" fill="#737373"/>
<path d="M206.349 34.1922C206.388 34.3303 206.347 34.4583 206.307 34.5862C206.216 34.5796 206.124 34.5729 206.033 34.5663C206.033 29.425 206.033 24.2837 206.072 19.0493C206.142 18.9551 206.175 18.9539 206.207 18.9526C206.215 23.647 206.223 28.3413 206.234 33.0356C206.235 33.4178 206.257 33.7999 206.349 34.1922Z" fill="#737373"/>
<path d="M51.9069 48.8776C51.8762 48.8175 51.9344 48.6903 51.9922 48.6904C55.7922 48.7012 59.5922 48.7222 63.4559 48.7927C59.6782 48.852 55.8369 48.861 51.9069 48.8776Z" fill="white"/>
<path d="M227.587 19.3751C227.312 19.2616 227.105 18.9638 226.897 18.9625C223.784 18.9432 220.672 18.963 217.473 18.988C217.542 18.9186 217.698 18.7622 217.855 18.7615C221.186 18.7474 224.517 18.7509 227.993 18.7509C227.846 19.0013 227.749 19.165 227.587 19.3751Z" fill="#D9D9D9"/>
<path d="M109.235 19.1409C108.867 19.0966 108.577 18.9528 108.286 18.9515C105.221 18.9382 102.157 18.9476 98.9956 18.9497C99.1637 18.8828 99.4281 18.7609 99.693 18.7597C102.692 18.7461 105.691 18.744 108.69 18.7664C108.898 18.768 109.104 18.9888 109.235 19.1409Z" fill="#D9D9D9"/>
<path d="M83.8739 18.8846C80.8246 18.9466 77.7146 18.9411 74.6046 18.9467C74.3277 18.9472 74.0509 19.0197 73.7301 19.1286C73.2546 18.858 73.4369 18.7541 73.8608 18.7518C74.4356 18.7487 75.0105 18.7474 75.5853 18.7519C78.3279 18.7735 81.0705 18.7972 83.8739 18.8846Z" fill="#D9D9D9"/>
<path d="M31.3599 26.6224C31.5902 26.561 31.9105 26.4374 32.2315 26.4356C35.2366 26.4191 38.2419 26.4233 41.3449 26.4575C41.4427 26.4933 41.4471 26.586 41.4471 26.586C38.1148 26.5962 34.7825 26.6065 31.3599 26.6224Z" fill="#A6A6A6"/>
<path d="M12.3491 26.5142C15.6678 26.4554 19.0209 26.4707 22.4161 26.5572C19.1 26.615 15.7417 26.6016 12.3491 26.5142Z" fill="#D9D9D9"/>
<path d="M62.5326 19.0819C62.3173 19.0942 62.1158 18.9522 61.9142 18.9522C58.992 18.9531 56.0698 18.973 53.061 19.0095C53.1252 18.9375 53.2755 18.764 53.4268 18.7631C56.3317 18.7469 59.2367 18.7477 62.1417 18.7611C62.2769 18.7617 62.4115 18.9128 62.5326 19.0819Z" fill="#D9D9D9"/>
<path d="M162.03 18.9538C161.942 18.9609 161.917 18.8729 161.915 18.8272C164.838 18.7878 167.764 18.794 170.702 18.8857C167.849 18.9631 164.984 18.9549 162.03 18.9538Z" fill="#D9D9D9"/>
<path d="M157.65 18.8709C157.639 18.9541 157.607 18.9554 157.527 18.9619C154.741 18.9605 152.003 18.954 149.177 18.9544C149.089 18.9614 149.064 18.8733 149.062 18.8275C151.916 18.7842 154.773 18.7866 157.65 18.8709Z" fill="#D9D9D9"/>
<path d="M206.186 18.871C206.175 18.9541 206.142 18.9553 206.062 18.9616C203.276 18.96 200.538 18.9534 197.712 18.9539C197.624 18.9611 197.599 18.8731 197.597 18.8275C200.451 18.7842 203.308 18.7866 206.186 18.871Z" fill="#D9D9D9"/>
<path d="M132.328 18.8709C132.317 18.9541 132.284 18.9554 132.204 18.9619C129.418 18.9605 126.68 18.9539 123.854 18.9544C123.766 18.9614 123.741 18.8733 123.739 18.8275C126.593 18.7842 129.45 18.7866 132.328 18.8709Z" fill="#D9D9D9"/>
<path d="M119.283 18.8709C119.272 18.9541 119.239 18.9554 119.159 18.9619C116.373 18.9606 113.635 18.9539 110.809 18.9544C110.721 18.9614 110.696 18.8733 110.694 18.8275C113.548 18.7842 116.405 18.7866 119.283 18.8709Z" fill="#D9D9D9"/>
<path d="M41.5273 26.5628C41.4469 26.586 41.4425 26.4934 41.433 26.448C41.429 23.981 41.4346 21.5594 41.4293 19.0497C41.4184 18.9616 41.4406 18.8725 41.4433 18.8267C41.5086 18.8982 41.6257 19.0155 41.6258 19.1329C41.6277 21.6018 41.6164 24.0707 41.5273 26.5628Z" fill="#141113"/>
<path d="M147.229 55.334C147.149 52.8823 147.147 50.4033 147.145 47.8364C147.208 47.8667 147.328 47.9847 147.328 48.1027C147.33 50.504 147.317 52.9053 147.229 55.334Z" fill="#D9D9D9"/>
<path d="M63.6597 48.9224C63.716 48.9001 63.798 48.9353 63.886 49.0421C63.8232 49.069 63.7543 49.0245 63.6597 48.9224Z" fill="white"/>
<path d="M119.332 89.1459C119.336 91.9567 117.505 93.1829 115.31 92.4026C114.794 92.2191 114.228 91.7644 113.991 91.2836C113.189 89.6569 113.22 87.9959 114.129 86.3742C114.548 85.6284 115.217 85.3419 115.984 85.3286C118.037 85.293 119.318 86.1974 119.332 89.1459Z" fill="white"/>
<path d="M129.974 88.0039C129.097 88.0045 128.306 88.0045 127.451 88.0045C127.451 87.2322 127.451 86.5219 127.451 85.7028C128.221 85.7028 128.98 85.7554 129.728 85.6885C130.529 85.6168 131.071 85.9183 131.189 86.6773C131.31 87.4566 130.838 87.901 129.974 88.0039Z" fill="white"/>
</svg>
